# xmcd CD database file
#
# Track frame offsets:
#	150
#	13605
#	30804
#	41844
#	59382
#	72919
#	97819
#	114410
#	130968
#	150149
#	164284
#	178559
#	192946
#	208960
#	230492
#	246312
#	264194
#
# Disc length: 3741 seconds
#
# Revision: 2
# Processed by: cddbd v1.4b41PL1 Copyright (c) Steve Scherf et al.
# Submitted via: Feurio! 1.52 - http://www.feurio.com
#
DISCID=d90e9b11
DTITLE=Emmylou Harris - Elite Hotel
DYEAR=1900
DGENRE=
TTITLE0=Amarillo
TTITLE1=Together again
TTITLE2=Feelin´ single-seein´ douple
TTITLE3=Sin city
TTITLE4=One of these days
TTITLE5=Till I gain control again
TTITLE6=Here, there and everywhere
TTITLE7=Ooh Las Vegas
TTITLE8=Sweet dreams
TTITLE9=Jambalaya
TTITLE10=Satan´s jewel crown
TTITLE11=Wheels
TTITLE12=Luxury liner
TTITLE13=Poncho and Lefty
TTITLE14=Making believe
TTITLE15=You´re supposed to be feeling good
TTITLE16=I´ll be your San Antone rose
EXTD=
EXTT0=
EXTT1=
EXTT2=
EXTT3=
EXTT4=
EXTT5=
EXTT6=
EXTT7=
EXTT8=
EXTT9=
EXTT10=
EXTT11=
EXTT12=
EXTT13=
EXTT14=
EXTT15=
EXTT16=
PLAYORDER=
